<svg width="50" height="46" viewBox="0 0 50 46" fill="none" xmlns="http://www.w3.org/2000/svg">
<path fill-rule="evenodd" clip-rule="evenodd" d="M25 3.79901C13.5 3.79901 4.16663 12.3088 4.16663 22.7941C4.16663 33.2794 13.5 41.7892 25 41.7892C36.5 41.7892 45.8333 33.2794 45.8333 22.7941C45.8333 12.3088 36.5 3.79901 25 3.79901ZM38.25 31.9687C35.2708 28.6636 28.0416 27.5429 25 27.5429C21.9583 27.5429 14.7291 28.6636 11.75 31.9687C9.62496 29.4234 8.33329 26.2512 8.33329 22.7941C8.33329 14.4173 15.8125 7.59803 25 7.59803C34.1875 7.59803 41.6666 14.4173 41.6666 22.7941C41.6666 26.2512 40.375 29.4234 38.25 31.9687ZM17.7083 18.0453C17.7083 14.3603 20.9583 11.3971 25 11.3971C29.0416 11.3971 32.2916 14.3603 32.2916 18.0453C32.2916 21.7304 29.0416 24.6936 25 24.6936C20.9583 24.6936 17.7083 21.7304 17.7083 18.0453Z" fill="#C51313"/>
</svg>
