<svg width="50" height="46" viewBox="0 0 50 46" fill="none" xmlns="http://www.w3.org/2000/svg">
<path fill-rule="evenodd" clip-rule="evenodd" d="M25 3.79902C13.5 3.79902 4.16667 12.3088 4.16667 22.7941C4.16667 33.2794 13.5 41.7892 25 41.7892C36.5 41.7892 45.8333 33.2794 45.8333 22.7941C45.8333 12.3088 36.5 3.79902 25 3.79902ZM38.25 31.9687C35.2708 28.6636 28.0417 27.5429 25 27.5429C21.9583 27.5429 14.7292 28.6636 11.75 31.9687C9.625 29.4234 8.33334 26.2512 8.33334 22.7941C8.33334 14.4173 15.8125 7.59804 25 7.59804C34.1875 7.59804 41.6667 14.4173 41.6667 22.7941C41.6667 26.2512 40.375 29.4234 38.25 31.9687ZM17.7083 18.0453C17.7083 14.3603 20.9583 11.3971 25 11.3971C29.0417 11.3971 32.2917 14.3603 32.2917 18.0453C32.2917 21.7304 29.0417 24.6936 25 24.6936C20.9583 24.6936 17.7083 21.7304 17.7083 18.0453Z" fill="black"/>
</svg>
