<svg width="45" height="41" viewBox="0 0 45 41" fill="none" xmlns="http://www.w3.org/2000/svg">
<mask id="mask0_104_518" style="mask-type:alpha" maskUnits="userSpaceOnUse" x="0" y="0" width="45" height="41">
<rect width="45" height="40.7547" fill="#D9D9D9"/>
</mask>
<g mask="url(#mask0_104_518)">
<path d="M9.375 32.2642H35.625V16.684L26.5781 8.49059H9.375V32.2642ZM9.375 35.6604C8.34375 35.6604 7.46094 35.3279 6.72656 34.6628C5.99219 33.9977 5.625 33.1981 5.625 32.2642V8.49059C5.625 7.55662 5.99219 6.7571 6.72656 6.092C7.46094 5.42691 8.34375 5.09436 9.375 5.09436H28.125L39.375 15.283V32.2642C39.375 33.1981 39.0078 33.9977 38.2734 34.6628C37.5391 35.3279 36.6562 35.6604 35.625 35.6604H9.375ZM13.125 28.8679H31.875V25.4717H13.125V28.8679ZM13.125 22.0755H31.875V18.6793H13.125V22.0755ZM13.125 15.283H26.25V11.8868H13.125V15.283Z" fill="#C51313"/>
</g>
</svg>
