<svg width="50" height="50" viewBox="0 0 50 50" fill="none" xmlns="http://www.w3.org/2000/svg">
<mask id="mask0_4_253" style="mask-type:alpha" maskUnits="userSpaceOnUse" x="0" y="0" width="50" height="50">
<rect width="50" height="50" fill="#D9D9D9"/>
</mask>
<g mask="url(#mask0_4_253)">
<path d="M23.125 39.5833H26.7708V36.9792C28.5069 36.6667 30 35.9896 31.25 34.9479C32.5 33.9063 33.125 32.3611 33.125 30.3125C33.125 28.8542 32.7083 27.5174 31.875 26.3021C31.0417 25.0868 29.375 24.0278 26.875 23.125C24.7917 22.4306 23.3507 21.8229 22.5521 21.3021C21.7535 20.7813 21.3542 20.0695 21.3542 19.1667C21.3542 18.2639 21.6753 17.5521 22.3177 17.0313C22.9601 16.5104 23.8889 16.25 25.1042 16.25C26.2153 16.25 27.0833 16.5191 27.7083 17.0573C28.3333 17.5955 28.7847 18.2639 29.0625 19.0625L32.3958 17.7083C32.0139 16.4931 31.3108 15.434 30.2865 14.5313C29.2621 13.6285 28.125 13.125 26.875 13.0208V10.4167H23.2292V13.0208C21.493 13.4028 20.1389 14.1667 19.1667 15.3125C18.1944 16.4583 17.7083 17.7431 17.7083 19.1667C17.7083 20.7986 18.1858 22.1181 19.1406 23.125C20.0955 24.132 21.5972 25 23.6458 25.7292C25.8333 26.5278 27.3524 27.2396 28.2031 27.8646C29.0538 28.4896 29.4792 29.3056 29.4792 30.3125C29.4792 31.4583 29.0712 32.3004 28.2552 32.8386C27.4392 33.3768 26.4583 33.6458 25.3125 33.6458C24.1667 33.6458 23.151 33.2899 22.2656 32.5781C21.3802 31.8663 20.7292 30.7986 20.3125 29.375L16.875 30.7292C17.3611 32.3958 18.1163 33.7413 19.1406 34.7656C20.1649 35.7899 21.493 36.4931 23.125 36.875V39.5833ZM25 45.8334C22.118 45.8334 19.4097 45.2865 16.875 44.1927C14.3403 43.099 12.1354 41.6146 10.2604 39.7396C8.38541 37.8646 6.90103 35.6597 5.80728 33.125C4.71353 30.5903 4.16666 27.882 4.16666 25C4.16666 22.1181 4.71353 19.4097 5.80728 16.875C6.90103 14.3403 8.38541 12.1354 10.2604 10.2604C12.1354 8.38543 14.3403 6.90105 16.875 5.8073C19.4097 4.71355 22.118 4.16668 25 4.16668C27.8819 4.16668 30.5903 4.71355 33.125 5.8073C35.6597 6.90105 37.8646 8.38543 39.7396 10.2604C41.6146 12.1354 43.0989 14.3403 44.1927 16.875C45.2864 19.4097 45.8333 22.1181 45.8333 25C45.8333 27.882 45.2864 30.5903 44.1927 33.125C43.0989 35.6597 41.6146 37.8646 39.7396 39.7396C37.8646 41.6146 35.6597 43.099 33.125 44.1927C30.5903 45.2865 27.8819 45.8334 25 45.8334ZM25 41.6667C29.6528 41.6667 33.5937 40.0521 36.8229 36.8229C40.0521 33.5938 41.6667 29.6528 41.6667 25C41.6667 20.3472 40.0521 16.4063 36.8229 13.1771C33.5937 9.94793 29.6528 8.33335 25 8.33335C20.3472 8.33335 16.4062 9.94793 13.1771 13.1771C9.94791 16.4063 8.33332 20.3472 8.33332 25C8.33332 29.6528 9.94791 33.5938 13.1771 36.8229C16.4062 40.0521 20.3472 41.6667 25 41.6667Z" fill="#1C1B1F"/>
</g>
</svg>
