<svg width="50" height="50" viewBox="0 0 50 50" fill="none" xmlns="http://www.w3.org/2000/svg">
<mask id="mask0_104_118" style="mask-type:alpha" maskUnits="userSpaceOnUse" x="0" y="0" width="50" height="50">
<rect width="50" height="50" fill="#D9D9D9"/>
</mask>
<g mask="url(#mask0_104_118)">
<path d="M23.125 39.5834H26.7708V36.9792C28.5069 36.6667 30 35.9896 31.25 34.9479C32.5 33.9063 33.125 32.3611 33.125 30.3125C33.125 28.8542 32.7083 27.5174 31.875 26.3021C31.0416 25.0868 29.375 24.0278 26.875 23.125C24.7916 22.4306 23.3507 21.8229 22.552 21.3021C21.7534 20.7813 21.3541 20.0695 21.3541 19.1667C21.3541 18.2639 21.6753 17.5521 22.3177 17.0313C22.96 16.5104 23.8888 16.25 25.1041 16.25C26.2152 16.25 27.0833 16.5191 27.7083 17.0573C28.3333 17.5955 28.7847 18.2639 29.0625 19.0625L32.3958 17.7084C32.0139 16.4931 31.3107 15.434 30.2864 14.5313C29.2621 13.6285 28.125 13.125 26.875 13.0209V10.4167H23.2291V13.0209C21.493 13.4028 20.1389 14.1667 19.1666 15.3125C18.1944 16.4584 17.7083 17.7431 17.7083 19.1667C17.7083 20.7986 18.1857 22.1181 19.1406 23.125C20.0954 24.132 21.5972 25 23.6458 25.7292C25.8333 26.5278 27.3524 27.2396 28.2031 27.8646C29.0538 28.4896 29.4791 29.3056 29.4791 30.3125C29.4791 31.4584 29.0711 32.3004 28.2552 32.8386C27.4392 33.3768 26.4583 33.6459 25.3125 33.6459C24.1666 33.6459 23.151 33.29 22.2656 32.5781C21.3802 31.8663 20.7291 30.7986 20.3125 29.375L16.875 30.7292C17.3611 32.3959 18.1163 33.7413 19.1406 34.7656C20.1649 35.79 21.493 36.4931 23.125 36.875V39.5834ZM25 45.8334C22.118 45.8334 19.4097 45.2865 16.875 44.1927C14.3402 43.099 12.1354 41.6146 10.2604 39.7396C8.38538 37.8646 6.901 35.6597 5.80725 33.125C4.7135 30.5903 4.16663 27.882 4.16663 25C4.16663 22.1181 4.7135 19.4097 5.80725 16.875C6.901 14.3403 8.38538 12.1354 10.2604 10.2604C12.1354 8.38544 14.3402 6.90106 16.875 5.80731C19.4097 4.71356 22.118 4.16669 25 4.16669C27.8819 4.16669 30.5902 4.71356 33.125 5.80731C35.6597 6.90106 37.8645 8.38544 39.7395 10.2604C41.6145 12.1354 43.0989 14.3403 44.1927 16.875C45.2864 19.4097 45.8333 22.1181 45.8333 25C45.8333 27.882 45.2864 30.5903 44.1927 33.125C43.0989 35.6597 41.6145 37.8646 39.7395 39.7396C37.8645 41.6146 35.6597 43.099 33.125 44.1927C30.5902 45.2865 27.8819 45.8334 25 45.8334ZM25 41.6667C29.6527 41.6667 33.5937 40.0521 36.8229 36.8229C40.052 33.5938 41.6666 29.6528 41.6666 25C41.6666 20.3472 40.052 16.4063 36.8229 13.1771C33.5937 9.94794 29.6527 8.33335 25 8.33335C20.3472 8.33335 16.4062 9.94794 13.177 13.1771C9.94788 16.4063 8.33329 20.3472 8.33329 25C8.33329 29.6528 9.94788 33.5938 13.177 36.8229C16.4062 40.0521 20.3472 41.6667 25 41.6667Z" fill="#C51313"/>
</g>
</svg>
